<svg width="360" height="385" viewBox="0 0 360 385" fill="none" xmlns="http://www.w3.org/2000/svg">
<path d="M360.047 338.577H-0.159393V339.347H360.047V338.577Z" fill="#263238"/>
<path d="M319.675 271.04C319.675 271.04 320.753 268.676 307.548 263.34C294.342 258.004 280.921 261.276 275.616 268.353C270.311 275.429 264.751 276.314 260.455 279.264C256.158 282.213 253.748 287.818 257.837 293.716C261.925 299.615 258.499 302.271 260.147 305.805C261.795 309.34 269.564 312.62 273.36 311.403C277.156 310.187 284.379 306.984 291.17 307.276C297.961 307.569 307.386 314.06 318.058 315.238C328.731 316.416 334.937 309.933 334.744 305.505C334.552 301.078 339.965 303.442 339.472 291.938C338.979 280.434 319.675 271.04 319.675 271.04Z" fill="#00BE76"/>
<path d="M270.619 295.896C269.739 294.753 268.542 293.896 267.177 293.432C266.053 293.135 264.882 293.051 263.727 293.185C264.442 294.035 265.271 294.782 266.191 295.403C267.916 296.627 270.619 295.896 270.619 295.896Z" fill="#263238"/>
<path d="M272.652 289.089C272.085 287.762 271.139 286.632 269.933 285.839C268.92 285.276 267.81 284.905 266.661 284.746C267.135 285.747 267.749 286.675 268.486 287.503C269.849 289.127 272.652 289.089 272.652 289.089Z" fill="#263238"/>
<path d="M281.484 284.8C281.419 283.359 280.931 281.969 280.082 280.804C279.334 279.916 278.428 279.174 277.41 278.617C277.505 279.723 277.751 280.811 278.142 281.851C278.842 283.845 281.484 284.8 281.484 284.8Z" fill="#263238"/>
<path d="M290.169 282.043C290.907 280.806 291.26 279.378 291.186 277.939C291.046 276.785 290.69 275.667 290.138 274.644C289.616 275.613 289.23 276.649 288.991 277.724C288.483 279.803 290.169 282.043 290.169 282.043Z" fill="#263238"/>
<path d="M305.03 281.866C306.134 280.944 306.938 279.713 307.34 278.332C307.593 277.197 307.63 276.024 307.448 274.875C306.629 275.621 305.919 276.479 305.338 277.423C304.16 279.194 305.03 281.866 305.03 281.866Z" fill="#263238"/>
<path d="M316.272 286.64C317.373 285.712 318.177 284.48 318.582 283.098C318.831 281.965 318.864 280.795 318.682 279.649C317.866 280.398 317.156 281.255 316.572 282.197C315.425 283.968 316.272 286.64 316.272 286.64Z" fill="#263238"/>
<path d="M321.1 292.762C322.494 292.364 323.738 291.56 324.673 290.452C325.375 289.531 325.897 288.486 326.213 287.372C325.16 287.715 324.16 288.202 323.241 288.819C321.416 289.974 321.1 292.762 321.1 292.762Z" fill="#263238"/>
<path d="M323.125 298.991C324.521 299.347 325.991 299.286 327.352 298.814C328.42 298.358 329.391 297.705 330.217 296.889C329.135 296.657 328.026 296.577 326.921 296.65C324.804 296.743 323.125 298.991 323.125 298.991Z" fill="#263238"/>
<path d="M314.709 303.742C315.922 304.533 317.343 304.943 318.79 304.92C319.946 304.829 321.074 304.52 322.116 304.011C321.155 303.445 320.118 303.017 319.036 302.741C317.011 302.148 314.709 303.742 314.709 303.742Z" fill="#263238"/>
<path d="M298.146 290.405C298.88 289.164 299.231 287.734 299.155 286.294C299.016 285.143 298.664 284.027 298.116 283.006C297.594 283.975 297.208 285.011 296.968 286.086C296.46 288.165 298.146 290.405 298.146 290.405Z" fill="#263238"/>
<path d="M271.82 300.585C270.56 299.884 269.123 299.568 267.685 299.676C266.536 299.847 265.429 300.231 264.42 300.808C265.41 301.31 266.465 301.67 267.554 301.878C269.626 302.325 271.82 300.585 271.82 300.585Z" fill="#263238"/>
<path d="M280.683 296.404C279.425 295.699 277.986 295.382 276.548 295.495C275.399 295.666 274.291 296.05 273.283 296.627C274.275 297.122 275.329 297.479 276.417 297.69C278.488 298.144 280.683 296.404 280.683 296.404Z" fill="#263238"/>
<path d="M279.62 292.769C279.62 292.769 289.799 303.087 292.579 306.037C295.359 308.986 296.806 315.176 296.429 320.197C296.052 325.217 292.818 339.07 292.818 339.07H302.551C302.551 339.07 301.873 330.222 301.781 321.082C301.688 311.942 302.705 308.4 303.529 306.922C304.352 305.444 309.311 297.482 309.311 297.482L316.041 289.227L305.261 299.846L303.975 288.088C303.967 288.05 303.946 288.016 303.916 287.992C303.886 287.968 303.848 287.954 303.81 287.954C303.771 287.954 303.733 287.968 303.703 287.992C303.673 288.016 303.652 288.05 303.644 288.088L302.104 301.948L298.816 307.846L291.47 301.686L295.513 295.572C295.551 295.526 295.569 295.467 295.563 295.408C295.557 295.349 295.528 295.294 295.482 295.257C295.436 295.219 295.377 295.201 295.318 295.207C295.259 295.212 295.204 295.241 295.166 295.287L290 300.431L279.62 292.769Z" fill="#263238"/>
<path d="M67.1001 271.04C67.1001 271.04 68.1781 268.676 54.9726 263.34C41.7671 258.004 28.3383 261.276 23.0407 268.353C17.7431 275.429 12.176 276.307 7.8794 279.256C3.5828 282.205 1.1727 287.811 5.2537 293.709C9.3347 299.607 5.9236 302.264 7.5637 305.798C9.2038 309.332 16.95 312.62 20.8 311.403C24.65 310.187 31.8187 306.984 38.6178 307.276C45.4169 307.569 54.7955 314.06 65.46 315.238C76.1245 316.416 82.3384 309.933 82.1536 305.505C81.9688 301.078 87.3665 303.442 86.8737 291.938C86.3809 280.434 67.1001 271.04 67.1001 271.04Z" fill="#00BE76"/>
<path d="M18.0434 295.896C17.1619 294.752 15.9617 293.894 14.5938 293.432C13.4722 293.134 12.3045 293.051 11.1519 293.185C11.8645 294.034 12.6911 294.78 13.6082 295.403C15.333 296.627 18.0434 295.896 18.0434 295.896Z" fill="#263238"/>
<path d="M20.0762 289.089C19.508 287.761 18.5596 286.63 17.3504 285.839C16.3371 285.275 15.2272 284.904 14.0779 284.746C14.5568 285.746 15.1737 286.674 15.9105 287.503C17.2657 289.127 20.0762 289.089 20.0762 289.089Z" fill="#263238"/>
<path d="M28.9004 284.8C28.8402 283.359 28.3553 281.969 27.5067 280.804C26.7588 279.916 25.8529 279.174 24.8348 278.617C24.9251 279.724 25.1713 280.813 25.5663 281.851C26.267 283.845 28.9004 284.8 28.9004 284.8Z" fill="#263238"/>
<path d="M37.5937 282.043C38.3214 280.814 38.6721 279.397 38.6024 277.97C38.4627 276.817 38.1102 275.699 37.5629 274.674C37.041 275.644 36.6549 276.68 36.4156 277.754C35.9074 279.803 37.5937 282.043 37.5937 282.043Z" fill="#263238"/>
<path d="M52.4547 281.866C53.556 280.941 54.3597 279.712 54.7647 278.332C55.0129 277.196 55.0494 276.024 54.8725 274.875C54.0521 275.622 53.3395 276.48 52.755 277.423C51.6 279.194 52.4547 281.866 52.4547 281.866Z" fill="#263238"/>
<path d="M63.6967 286.64C64.8 285.714 65.6039 284.481 66.0067 283.098C66.259 281.965 66.2955 280.795 66.1145 279.649C65.2955 280.395 64.5853 281.253 64.0047 282.197C62.8497 283.968 63.6967 286.64 63.6967 286.64Z" fill="#263238"/>
<path d="M68.54 292.762C69.9343 292.364 71.1783 291.56 72.1128 290.452C72.8146 289.531 73.337 288.486 73.6528 287.372C72.5973 287.714 71.5944 288.201 70.6729 288.819C68.8326 289.974 68.54 292.762 68.54 292.762Z" fill="#263238"/>
<path d="M70.542 298.991C71.938 299.347 73.408 299.286 74.7693 298.814C75.8378 298.356 76.8117 297.703 77.6414 296.889C76.5567 296.657 75.4449 296.576 74.3381 296.65C72.2283 296.743 70.542 298.991 70.542 298.991Z" fill="#263238"/>
<path d="M62.1259 303.742C63.3455 304.536 64.775 304.946 66.23 304.92C67.3886 304.83 68.5198 304.521 69.5641 304.011C68.6024 303.445 67.5655 303.017 66.4841 302.741C64.4359 302.148 62.1259 303.742 62.1259 303.742Z" fill="#263238"/>
<path d="M45.5632 290.405C46.3014 289.166 46.6551 287.735 46.5796 286.294C46.4409 285.143 46.0883 284.027 45.5401 283.006C45.0131 283.973 44.6244 285.01 44.3851 286.086C43.9 288.165 45.5632 290.405 45.5632 290.405Z" fill="#263238"/>
<path d="M19.26 300.585C18.0033 299.883 16.5679 299.567 15.1328 299.676C13.983 299.845 12.8754 300.229 11.868 300.808C12.8574 301.31 13.9123 301.67 15.0019 301.878C17.0501 302.325 19.26 300.585 19.26 300.585Z" fill="#263238"/>
<path d="M28.1073 296.404C26.8492 295.699 25.4102 295.382 23.9724 295.495C22.8231 295.666 21.7158 296.05 20.7076 296.627C21.7106 297.127 22.7783 297.485 23.88 297.69C25.9051 298.144 28.1073 296.404 28.1073 296.404Z" fill="#263238"/>
<path d="M27.0447 292.769C27.0447 292.769 37.2164 303.087 39.9961 306.036C42.7758 308.986 44.2234 315.176 43.8461 320.197C43.4688 325.217 40.2348 339.069 40.2348 339.069H49.9753C49.9753 339.069 49.2977 330.222 49.2053 321.082C49.1129 311.942 50.137 308.4 50.9532 306.922C51.7694 305.444 56.7436 297.482 56.7436 297.482L63.4657 289.227L52.6857 299.846L51.3998 288.088C51.3998 288.043 51.3819 288 51.3502 287.968C51.3184 287.936 51.2753 287.918 51.2304 287.918C51.1855 287.918 51.1424 287.936 51.1106 287.968C51.0788 288 51.061 288.043 51.061 288.088L49.521 301.948L46.2408 307.846L38.895 301.686L42.9298 295.572C42.9485 295.549 42.9625 295.523 42.9711 295.495C42.9797 295.467 42.9826 295.437 42.9798 295.408C42.9769 295.379 42.9683 295.35 42.9544 295.324C42.9406 295.298 42.9217 295.275 42.899 295.256C42.8762 295.238 42.85 295.224 42.8218 295.215C42.7937 295.207 42.7641 295.204 42.7348 295.207C42.7054 295.209 42.677 295.218 42.651 295.232C42.625 295.246 42.602 295.265 42.5833 295.287L37.4243 300.431L27.0447 292.769Z" fill="#263238"/>
<path d="M272.821 230.815C272.821 230.815 273.899 228.451 260.694 223.115C247.488 217.779 234.059 221.052 228.762 228.128C223.464 235.204 217.92 236.121 213.6 239.07C209.281 242.019 206.894 247.624 210.982 253.522C215.071 259.421 211.644 262.077 213.292 265.612C214.94 269.146 222.725 272.395 226.513 271.217C230.302 270.039 237.524 266.79 244.323 267.09C251.122 267.39 260.54 273.874 271.212 275.052C281.884 276.23 288.082 269.739 287.898 265.319C287.713 260.899 293.118 263.255 292.618 251.752C292.117 240.248 272.821 230.815 272.821 230.815Z" fill="#00BE76"/>
<path d="M223.764 255.702C222.881 254.561 221.681 253.706 220.315 253.245C219.193 252.948 218.025 252.864 216.873 252.999C217.587 253.849 218.417 254.595 219.337 255.217C221.054 256.41 223.764 255.702 223.764 255.702Z" fill="#263238"/>
<path d="M225.797 248.895C225.228 247.569 224.279 246.442 223.071 245.653C222.058 245.088 220.948 244.717 219.799 244.56C220.28 245.559 220.897 246.486 221.631 247.316C222.987 248.933 225.797 248.895 225.797 248.895Z" fill="#263238"/>
<path d="M234.621 244.614C234.561 243.173 234.076 241.783 233.228 240.617C232.48 239.73 231.574 238.988 230.556 238.43C230.646 239.535 230.892 240.621 231.287 241.657C231.988 243.659 234.621 244.614 234.621 244.614Z" fill="#263238"/>
<path d="M243.33 241.857C244.068 240.617 244.422 239.186 244.346 237.745C244.207 236.593 243.852 235.478 243.299 234.457C242.777 235.426 242.391 236.463 242.152 237.537C241.628 239.616 243.33 241.857 243.33 241.857Z" fill="#263238"/>
<path d="M258.176 241.68C259.276 240.751 260.08 239.52 260.486 238.138C260.734 237.004 260.77 235.835 260.593 234.688C259.773 235.436 259.06 236.294 258.476 237.237C257.329 239.008 258.176 241.68 258.176 241.68Z" fill="#263238"/>
<path d="M269.418 246.454C270.521 245.528 271.325 244.295 271.728 242.912C271.974 241.781 272.005 240.613 271.82 239.47C271.001 240.217 270.291 241.075 269.71 242.019C268.571 243.774 269.418 246.454 269.418 246.454Z" fill="#263238"/>
<path d="M274.23 252.56C275.619 252.172 276.862 251.382 277.803 250.288C278.505 249.367 279.027 248.323 279.343 247.208C278.288 247.556 277.286 248.046 276.363 248.664C274.561 249.788 274.23 252.56 274.23 252.56Z" fill="#263238"/>
<path d="M276.263 258.797C277.661 259.158 279.134 259.099 280.498 258.628C281.563 258.168 282.535 257.516 283.362 256.703C282.278 256.471 281.166 256.39 280.059 256.464C277.98 256.556 276.263 258.797 276.263 258.797Z" fill="#263238"/>
<path d="M267.847 263.556C269.057 264.338 270.471 264.748 271.912 264.734C273.07 264.639 274.201 264.331 275.247 263.825C274.284 263.258 273.248 262.827 272.167 262.547C270.157 261.962 267.847 263.556 267.847 263.556Z" fill="#263238"/>
<path d="M251.284 250.25C252.021 249.01 252.375 247.579 252.3 246.138C252.162 244.987 251.809 243.872 251.261 242.85C250.734 243.818 250.345 244.855 250.106 245.93C249.598 247.979 251.284 250.25 251.284 250.25Z" fill="#263238"/>
<path d="M224.973 260.399C223.715 259.693 222.276 259.377 220.838 259.49C219.689 259.659 218.581 260.043 217.574 260.622C218.564 261.118 219.619 261.476 220.707 261.685C222.771 262.139 224.973 260.399 224.973 260.399Z" fill="#263238"/>
<path d="M233.828 256.218C232.57 255.512 231.131 255.196 229.693 255.309C228.545 255.479 227.438 255.86 226.428 256.433C227.418 256.935 228.473 257.295 229.562 257.503C231.626 257.95 233.828 256.218 233.828 256.218Z" fill="#263238"/>
<path d="M232.766 252.56C232.766 252.56 242.937 262.886 245.717 265.835C248.497 268.784 249.952 274.975 249.567 279.987C249.182 285 245.956 339.023 245.956 339.023H255.689C255.689 339.023 255.011 290.02 254.919 280.873C254.826 271.725 255.85 268.191 256.674 266.72C257.498 265.25 262.457 257.28 262.457 257.28L269.179 249.026L258.399 259.644L257.144 247.94C257.144 247.895 257.126 247.852 257.094 247.82C257.062 247.788 257.019 247.771 256.974 247.771C256.929 247.771 256.886 247.788 256.855 247.82C256.823 247.852 256.805 247.895 256.805 247.94L255.265 261.8L251.985 267.698L244.639 261.5L248.674 255.394C248.7 255.347 248.709 255.292 248.699 255.24C248.69 255.187 248.662 255.139 248.621 255.104C248.58 255.07 248.528 255.051 248.475 255.05C248.421 255.049 248.369 255.067 248.327 255.101L243.168 260.245L232.766 252.56Z" fill="#263238"/>
<path d="M171.92 230.815C171.92 230.815 172.998 228.451 159.793 223.115C146.587 217.779 133.166 221.052 127.861 228.128C122.555 235.204 116.996 236.09 112.7 239.039C108.403 241.988 105.993 247.593 110.081 253.492C114.17 259.39 110.744 262.046 112.391 265.581C114.039 269.115 121.832 272.364 125.612 271.186C129.393 270.008 136.631 266.759 143.422 267.059C150.214 267.359 159.639 273.843 170.311 275.021C180.983 276.199 187.189 269.708 186.997 265.288C186.804 260.868 192.217 263.224 191.725 251.721C191.232 240.217 171.92 230.815 171.92 230.815Z" fill="#00BE76"/>
<path d="M122.863 255.702C121.982 254.563 120.785 253.708 119.422 253.245C118.297 252.948 117.127 252.865 115.972 252.999C116.686 253.849 117.516 254.595 118.436 255.217C120.13 256.41 122.863 255.702 122.863 255.702Z" fill="#263238"/>
<path d="M124.896 248.895C124.328 247.571 123.383 246.443 122.178 245.653C121.164 245.089 120.055 244.719 118.906 244.56C119.382 245.56 119.996 246.488 120.731 247.316C122.093 248.933 124.896 248.895 124.896 248.895Z" fill="#263238"/>
<path d="M133.728 244.614C133.663 243.173 133.176 241.783 132.327 240.617C131.579 239.73 130.673 238.988 129.655 238.43C129.75 239.534 129.996 240.62 130.386 241.657C131.087 243.659 133.728 244.614 133.728 244.614Z" fill="#263238"/>
<path d="M142.414 241.857C143.152 240.617 143.506 239.186 143.43 237.745C143.291 236.593 142.935 235.478 142.383 234.457C141.861 235.426 141.475 236.463 141.236 237.537C140.727 239.616 142.414 241.857 142.414 241.857Z" fill="#263238"/>
<path d="M157.275 241.68C158.378 240.754 159.182 239.521 159.585 238.138C159.837 237.005 159.874 235.835 159.693 234.688C158.874 235.435 158.163 236.293 157.583 237.237C156.428 239.008 157.275 241.68 157.275 241.68Z" fill="#263238"/>
<path d="M168.517 246.454C169.618 245.526 170.421 244.294 170.827 242.912C171.082 241.782 171.124 240.615 170.95 239.47C170.134 240.219 169.424 241.077 168.84 242.019C167.67 243.774 168.517 246.454 168.517 246.454Z" fill="#263238"/>
<path d="M173.329 252.56C174.718 252.172 175.961 251.382 176.902 250.288C177.604 249.367 178.126 248.323 178.442 247.208C177.39 247.558 176.391 248.047 175.47 248.664C173.66 249.788 173.329 252.56 173.329 252.56Z" fill="#263238"/>
<path d="M175.37 258.797C176.765 259.158 178.235 259.099 179.597 258.628C180.664 258.172 181.636 257.518 182.461 256.703C181.379 256.471 180.27 256.39 179.166 256.464C177.048 256.556 175.37 258.797 175.37 258.797Z" fill="#263238"/>
<path d="M166.954 263.556C168.163 264.34 169.578 264.75 171.019 264.734C172.175 264.639 173.302 264.331 174.346 263.825C173.384 263.258 172.347 262.827 171.266 262.547C169.256 261.962 166.954 263.556 166.954 263.556Z" fill="#263238"/>
<path d="M150.391 250.25C151.124 249.008 151.475 247.578 151.4 246.138C151.261 244.987 150.908 243.872 150.36 242.85C149.838 243.819 149.452 244.856 149.213 245.93C148.705 247.979 150.391 250.25 150.391 250.25Z" fill="#263238"/>
<path d="M124.072 260.399C122.814 259.693 121.375 259.377 119.937 259.49C118.788 259.661 117.681 260.045 116.673 260.622C117.664 261.117 118.719 261.474 119.807 261.685C121.87 262.139 124.072 260.399 124.072 260.399Z" fill="#263238"/>
<path d="M132.927 256.218C131.669 255.512 130.23 255.196 128.792 255.309C127.643 255.471 126.534 255.844 125.52 256.41C126.51 256.91 127.565 257.27 128.654 257.48C130.733 257.95 132.927 256.218 132.927 256.218Z" fill="#263238"/>
<path d="M131.865 252.56C131.865 252.56 142.044 262.886 144.824 265.835C147.604 268.784 149.051 274.975 148.674 279.987C148.297 285 145.063 339.023 145.063 339.023H154.78C154.78 339.023 154.11 290.021 154.01 280.873C153.91 271.725 154.934 268.191 155.758 266.72C156.582 265.25 161.548 257.28 161.548 257.28L168.27 249.026L157.49 259.644L156.243 247.94C156.235 247.902 156.214 247.868 156.184 247.844C156.154 247.82 156.116 247.807 156.077 247.807C156.039 247.807 156.001 247.82 155.971 247.844C155.941 247.868 155.92 247.902 155.912 247.94L154.372 261.8L151.084 267.698L143.738 261.5L147.781 255.394C147.919 255.17 147.619 254.916 147.434 255.101L142.268 260.245L131.865 252.56Z" fill="#263238"/>
<path d="M336.215 106.36H203.051L214.755 102.048C215.21 101.039 217.835 95.6879 222.694 94.2249C225.72 93.3163 229.154 94.5791 231.934 95.5878C233.767 96.2654 235.499 96.8968 236 96.3578C236.473 95.7875 236.867 95.1555 237.17 94.479C238.615 91.2173 241.165 88.5699 244.37 87.0023C247.912 85.239 251.923 86.3709 255.15 87.2795C257.66 87.9879 259.831 88.6039 260.84 87.5952C261.466 86.7792 261.955 85.8663 262.287 84.8925C264.02 80.7884 266.907 73.9123 280.767 73.5042C297.661 73.0268 306.632 89.1275 307.456 90.6752C310.051 91.938 312.846 91.8687 315.741 91.7994C318.505 91.7378 321.354 91.6685 324.373 92.6695C330.663 94.7716 335.761 105.359 335.976 105.806L336.215 106.36ZM207.371 105.59H334.96C333.813 103.373 329.27 95.1335 324.08 93.401C321.192 92.4385 318.405 92.5078 315.718 92.5694C312.638 92.6464 309.758 92.7157 306.955 91.3143L306.84 91.2527L306.778 91.1372C306.693 90.9678 297.908 73.7506 280.744 74.2742C267.393 74.6669 264.721 81.004 262.957 85.1928C262.596 86.2594 262.051 87.2548 261.348 88.1342C260.016 89.4663 257.644 88.7964 254.903 88.0187C251.646 87.1024 247.973 86.0552 244.685 87.6876C241.619 89.1748 239.186 91.7092 237.825 94.8332C237.488 95.5932 237.045 96.3011 236.508 96.9353C235.653 97.79 233.967 97.1663 231.626 96.3116C228.977 95.3414 225.674 94.1248 222.894 94.9564C217.951 96.4425 215.402 102.441 215.379 102.502L215.31 102.656L207.371 105.59Z" fill="#263238"/>
<path d="M140.289 51.0202H47.5729L56.22 47.8324C56.5896 47.0624 58.3991 43.4203 61.7486 42.4424C63.8738 41.811 66.2685 42.6888 68.1858 43.3895C69.3023 43.8053 70.5728 44.2673 70.8731 43.967C71.1842 43.5734 71.4431 43.1412 71.6431 42.6811C72.6527 40.4098 74.4302 38.5669 76.6635 37.4759C79.1429 36.2362 81.938 37.0216 84.1787 37.6607C85.8727 38.1381 87.3357 38.5539 87.9825 37.8994C88.4057 37.3512 88.736 36.7374 88.9604 36.0822C90.1616 33.2178 92.179 28.4361 101.812 28.1512C113.416 27.8278 119.622 38.7541 120.292 40.0246C122.047 40.8639 123.926 40.7946 125.92 40.7946C127.938 40.6353 129.967 40.8414 131.911 41.4029C136.3 42.8659 139.842 50.2117 139.988 50.5274L140.289 51.0202ZM51.8926 50.2502H139.049C138.14 48.5177 135.122 43.2201 131.703 42.0805C129.843 41.5473 127.903 41.3542 125.974 41.5107C123.841 41.5646 121.832 41.6108 119.876 40.6329L119.76 40.5713L119.706 40.4558C119.645 40.3403 113.593 28.5208 101.858 28.9058C92.718 29.1753 90.9008 33.5258 89.6919 36.3594C89.4434 37.1081 89.0598 37.805 88.56 38.4153C87.5975 39.3855 85.9266 38.9158 84.0016 38.3691C81.7763 37.7377 79.2507 37.0216 77.0716 38.1304C74.9814 39.1471 73.3217 40.8751 72.39 43.0045C72.1555 43.5413 71.8414 44.0397 71.4583 44.4829C70.8192 45.1297 69.618 44.6908 67.9702 44.0825C66.153 43.4203 63.8969 42.5887 62.0181 43.1508C58.6686 44.1595 56.9284 48.2482 56.913 48.2867L56.8437 48.4407L51.8926 50.2502Z" fill="#263238"/>
<path d="M108.01 157.642H45.209L51.6 155.286C51.9003 154.647 53.14 152.314 55.3499 151.644C56.8052 151.205 58.4299 151.805 59.7235 152.283C60.2548 152.475 61.2635 152.837 61.379 152.699C61.5809 152.444 61.7491 152.165 61.8795 151.867C62.5682 150.326 63.7752 149.076 65.2906 148.333C66.9923 147.486 68.8788 148.017 70.3957 148.448C71.4891 148.756 72.4362 149.026 72.8135 148.648C73.082 148.291 73.2924 147.893 73.4372 147.47C74.2534 145.53 75.624 142.288 82.1305 142.08C89.8305 141.872 94.0116 149.01 94.5737 150.034C95.7397 150.474 96.9927 150.632 98.2312 150.496C99.5927 150.393 100.962 150.534 102.274 150.912C105.254 151.906 107.664 156.857 107.741 157.072L108.01 157.642ZM49.4902 156.872H106.74C106.039 155.571 104.129 152.375 102.004 151.667C100.776 151.32 99.4961 151.193 98.2235 151.29C96.819 151.447 95.3978 151.24 94.0963 150.689L93.9808 150.635L93.9269 150.52C93.8807 150.443 89.8921 142.658 82.1305 142.873C76.1168 143.051 74.9156 145.884 74.1225 147.771C73.9531 148.285 73.6923 148.765 73.3525 149.187C72.6518 149.888 71.5122 149.565 70.1801 149.187C68.7171 148.779 67.0616 148.31 65.6294 149.026C64.2511 149.685 63.1573 150.82 62.5494 152.221C62.3846 152.59 62.1667 152.932 61.9026 153.238C61.4098 153.73 60.5859 153.422 59.4386 152.999C58.2913 152.575 56.759 152.021 55.5424 152.383C53.3633 153.037 52.2314 155.709 52.216 155.732L52.1544 155.894L49.4902 156.872Z" fill="#263238"/>
<path d="M330.34 219.958H267.554L273.961 217.602C274.253 216.971 275.501 214.638 277.703 213.968C279.166 213.529 280.783 214.122 282.084 214.599C282.615 214.792 283.624 215.153 283.74 215.015C283.941 214.763 284.109 214.486 284.24 214.191C284.924 212.647 286.133 211.395 287.651 210.657C289.345 209.81 291.239 210.341 292.756 210.772C293.85 211.08 294.797 211.342 295.174 210.965C295.441 210.606 295.652 210.209 295.798 209.787C296.614 207.854 297.977 204.612 304.483 204.397H304.845C312.314 204.397 316.395 211.327 316.927 212.358C318.095 212.8 319.35 212.96 320.592 212.828C321.953 212.721 323.323 212.862 324.634 213.244C327.614 214.237 330.024 219.188 330.101 219.404L330.34 219.958ZM271.82 219.188H329.07C328.369 217.895 326.459 214.691 324.334 213.983C323.106 213.635 321.826 213.51 320.553 213.613C319.149 213.77 317.728 213.564 316.426 213.013L316.311 212.959L316.249 212.843C316.249 212.766 312.322 205.182 304.784 205.182H304.453C298.439 205.359 297.245 208.2 296.452 210.079C296.285 210.597 296.024 211.08 295.682 211.504C294.982 212.204 293.834 211.881 292.51 211.504C291.047 211.088 289.391 210.618 287.959 211.334C286.585 211.999 285.493 213.132 284.879 214.53C284.718 214.901 284.502 215.246 284.24 215.554C283.747 216.039 282.916 215.739 281.768 215.315C280.621 214.892 279.089 214.329 277.88 214.699C275.709 215.346 274.561 218.025 274.554 218.049L274.484 218.203L271.82 219.188Z" fill="#263238"/>
<path d="M105.385 233.387H82.7927V235.497H105.385V233.387Z" fill="#00BE76"/>
<path d="M105.77 235.89H82.4V233.002H105.762L105.77 235.89ZM83.1777 235.12H105V233.772H83.17L83.1777 235.12Z" fill="#263238"/>
<path d="M105.385 233.387H101.373V338.962H105.385V233.387Z" fill="#00BE76"/>
<path d="M105.77 339.347H100.988V233.002H105.77V339.347ZM101.758 338.577H105V233.772H101.758V338.577Z" fill="#263238"/>
<path d="M96.9376 233.387H92.9259V338.962H96.9376V233.387Z" fill="#00BE76"/>
<path d="M97.3226 339.347H92.5409V233.002H97.3226V339.347ZM93.3109 338.577H96.5526V233.772H93.3109V338.577Z" fill="#263238"/>
<path d="M86.8044 233.387H82.7927V338.962H86.8044V233.387Z" fill="#00BE76"/>
<path d="M87.1894 339.347H82.4V233.002H87.1817L87.1894 339.347ZM83.1777 338.577H86.4194V233.772H83.17L83.1777 338.577Z" fill="#263238"/>
<path d="M181.638 264.88C181.638 264.88 183.001 282.22 183.509 293.786C183.807 300.711 184.716 307.596 186.227 314.36C186.227 314.36 180.96 310.787 176.71 309.74C172.459 308.693 158.684 309.063 153.409 307.022C148.135 304.982 147.796 303.619 146.949 303.11C146.102 302.602 140.997 297.22 137.07 302.656C133.143 308.092 137.409 317.964 136.562 319.327C135.715 320.69 132.82 325.787 133.667 331.4C134.514 337.014 135.538 340.07 137.409 339.393C139.28 338.715 145.401 328.166 146.934 325.109C147.773 323.395 148.739 321.746 149.821 320.174C149.821 320.174 165.468 326.465 173.799 330.376C182.13 334.288 198.285 337.175 201.35 331.739C204.414 326.303 210.697 315.415 211.36 303.172C212.022 290.929 216.288 263.717 216.288 263.717L181.638 264.88Z" fill="#00BE76"/>
<path d="M136.931 339.87C136.643 339.871 136.36 339.791 136.115 339.639C134.891 338.915 134.075 336.559 133.305 331.454C132.442 325.764 135.337 320.574 136.246 319.134C136.446 318.826 136.146 317.271 135.876 315.892C135.106 312.042 134.021 306.275 136.77 302.448C137.183 301.789 137.731 301.225 138.377 300.791C139.023 300.357 139.753 300.064 140.52 299.93C143.13 299.584 145.517 301.54 146.68 302.479C146.895 302.656 147.057 302.795 147.157 302.856C147.406 303.02 147.634 303.214 147.835 303.434C148.512 304.104 149.644 305.22 153.556 306.737C156.636 307.938 162.796 308.277 168.186 308.624C171.063 308.699 173.931 308.972 176.771 309.44C180.105 310.21 183.971 312.52 185.619 313.567C184.251 307.072 183.409 300.478 183.101 293.847C182.6 282.428 181.245 265.126 181.23 264.957V264.557H181.63L216.78 263.34L216.711 263.802C216.665 264.072 212.453 291.129 211.783 303.211C211.113 315.292 205.146 325.833 201.943 331.523L201.696 331.947C198.393 337.822 181.676 334.511 173.653 330.746C166.037 327.173 152.139 321.544 149.983 320.667C148.985 322.145 148.087 323.688 147.296 325.287C146.302 327.265 139.773 338.954 137.555 339.762C137.355 339.834 137.144 339.871 136.931 339.87ZM141.136 300.647C140.964 300.635 140.791 300.635 140.62 300.647C139.959 300.77 139.331 301.03 138.777 301.411C138.222 301.792 137.754 302.284 137.401 302.856C134.845 306.414 135.923 312.004 136.631 315.7C137.055 317.887 137.239 318.957 136.901 319.496C136.031 320.897 133.243 325.879 134.067 331.308C134.506 334.226 135.245 338.199 136.508 338.946C136.623 339.016 136.753 339.057 136.886 339.066C137.02 339.075 137.154 339.053 137.278 339C138.818 338.423 144.693 328.698 146.587 324.902C147.439 323.172 148.417 321.506 149.513 319.92L149.69 319.673L149.968 319.789C150.122 319.85 165.722 326.126 173.961 329.999C182.646 334.072 198.177 336.559 201.011 331.539L201.25 331.115C204.43 325.479 210.336 314.984 210.998 303.141C211.621 291.892 215.302 267.721 215.864 264.11L182.038 265.273C182.246 267.945 183.416 283.329 183.878 293.763C184.179 300.661 185.086 307.52 186.589 314.26L186.827 315.23L185.996 314.676C185.95 314.637 180.737 311.126 176.602 310.141C173.799 309.694 170.969 309.437 168.132 309.371C162.665 309.047 156.459 308.678 153.24 307.43C149.182 305.89 147.973 304.674 147.257 303.957C147.095 303.784 146.914 303.629 146.718 303.495C146.587 303.411 146.402 303.264 146.148 303.057C145.193 302.256 143.23 300.647 141.136 300.647Z" fill="#263238"/>
<path d="M183.07 276.13C183.07 276.13 187.058 272.141 195.605 269.577C204.152 267.013 214.686 272.711 214.686 272.711L216.657 262.069L190.762 262.454L181.638 264.88L183.07 276.13Z" fill="#263238"/>
<path d="M182.785 276.954L181.245 264.634L190.785 262.077L217.15 261.684L215.002 273.311L214.54 273.057C214.432 273.003 204.037 267.467 195.744 269.977C187.451 272.488 183.424 276.391 183.37 276.43L182.785 276.954ZM182.061 265.196L183.355 275.352C184.733 274.182 188.652 271.263 195.49 269.192C203.19 266.882 212.237 271.032 214.401 272.118L216.188 262.447L190.816 262.824L182.061 265.196Z" fill="#263238"/>
<path d="M187.223 271.342L186.465 271.479L189.05 285.847L189.808 285.711L187.223 271.342Z" fill="#263238"/>
<path d="M190.412 288.541L189.654 288.675L190.516 293.558L191.274 293.425L190.412 288.541Z" fill="#263238"/>
<path d="M147.457 309.178C147.98 307.708 149.024 306.481 150.391 305.728C147.95 304.435 147.596 303.557 146.949 303.172C146.102 302.656 140.997 297.22 137.085 302.656C133.174 308.092 137.424 317.964 136.577 319.327C135.73 320.69 132.835 325.787 133.682 331.4C134.529 337.014 135.553 340.071 137.424 339.393C139.295 338.715 145.417 328.166 146.949 325.109C147.732 323.514 148.617 321.971 149.598 320.489C148.435 317.317 146.672 311.735 147.457 309.178Z" fill="white"/>
<path d="M136.931 339.87C136.643 339.871 136.36 339.791 136.115 339.639C134.891 338.915 134.075 336.559 133.305 331.454C132.442 325.764 135.337 320.574 136.246 319.134C136.446 318.826 136.146 317.271 135.876 315.892C135.106 312.042 134.021 306.275 136.777 302.448C137.189 301.789 137.735 301.224 138.38 300.79C139.025 300.356 139.754 300.063 140.52 299.93C143.13 299.584 145.517 301.54 146.68 302.479C146.895 302.656 147.057 302.795 147.157 302.856C147.407 303.022 147.637 303.215 147.842 303.434C148.639 304.236 149.563 304.902 150.576 305.405L151.169 305.721L150.599 306.067C149.311 306.768 148.326 307.92 147.835 309.301C147.065 311.773 148.851 317.317 149.968 320.397L150.037 320.589L149.929 320.751C148.956 322.207 148.079 323.724 147.303 325.294C146.31 327.273 139.78 338.962 137.563 339.77C137.36 339.84 137.146 339.874 136.931 339.87ZM141.136 300.646C140.964 300.635 140.791 300.635 140.62 300.646C139.959 300.77 139.331 301.03 138.777 301.411C138.222 301.792 137.754 302.284 137.401 302.856C134.845 306.414 135.923 312.004 136.631 315.7C137.055 317.887 137.239 318.957 136.901 319.496C136.03 320.897 133.243 325.879 134.067 331.308C134.506 334.226 135.245 338.199 136.508 338.946C136.623 339.016 136.753 339.057 136.886 339.066C137.02 339.075 137.154 339.053 137.278 339C138.818 338.423 144.693 328.698 146.587 324.901C147.353 323.362 148.212 321.87 149.159 320.435C147.765 316.585 146.302 311.534 147.072 309.032C147.531 307.676 148.431 306.513 149.629 305.728C148.763 305.243 147.97 304.64 147.273 303.934C147.11 303.761 146.93 303.606 146.734 303.472C146.603 303.388 146.418 303.241 146.164 303.033C145.193 302.256 143.23 300.646 141.136 300.646Z" fill="#263238"/>
<path d="M153.409 307.084C153.409 307.084 149.159 311.704 148.789 315.554L152.362 315.723C152.362 315.723 153.04 309.602 156.982 308.239L153.409 307.084Z" fill="#263238"/>
<path d="M152.732 316.154L148.404 315.946V315.546C148.751 311.55 152.917 307.007 153.101 306.822L153.263 306.637L158.145 308.262L157.075 308.631C153.44 309.902 152.747 315.738 152.74 315.792L152.732 316.154ZM149.251 315.215L152.054 315.353C152.254 314.098 153.101 310.002 155.904 308.331L153.494 307.523C152.786 308.377 149.744 312.004 149.251 315.215Z" fill="#263238"/>
<path d="M173.984 309.463C173.984 309.463 171.605 311.334 170.419 316.262L174.153 316.601C174.153 316.601 175.693 311.981 178.234 310.479C178.234 310.479 175.008 309.124 173.984 309.463Z" fill="#263238"/>
<path d="M174.423 317.017L169.934 316.609L170.041 316.17C171.25 311.172 173.645 309.24 173.745 309.155L173.868 309.093C174.962 308.732 177.826 309.863 178.388 310.125L179.089 310.418L178.434 310.811C176.04 312.25 174.538 316.678 174.523 316.724L174.423 317.017ZM170.896 315.923L173.891 316.193C174.246 315.23 175.493 312.158 177.433 310.58C176.403 310.12 175.296 309.859 174.169 309.81C173.83 310.11 171.966 311.912 170.896 315.923Z" fill="#263238"/>
<path d="M134.367 316.093C134.367 316.093 144.231 320.513 150.537 322.892C156.844 325.271 172.49 332.078 181.468 334.796C190.446 337.514 204.253 334.627 206.978 333.094C209.704 331.562 212.415 328.166 211.598 326.295C210.782 324.424 209.897 324.424 203.436 323.061C196.976 321.698 186.604 317.964 183.709 317.456C180.814 316.947 177.587 314.376 166.877 314.376C156.166 314.376 146.472 314.206 142.391 314.037C138.31 313.867 133.343 313.713 134.367 316.093Z" fill="white"/>
<path d="M190.3 336.29C187.282 336.344 184.271 335.966 181.36 335.166C175.085 333.271 165.783 329.483 158.314 326.434C155.088 325.117 152.301 323.977 150.383 323.254C144.154 320.897 134.306 316.485 134.213 316.447L134.075 316.385L134.021 316.247C133.898 316.016 133.839 315.756 133.85 315.495C133.861 315.234 133.941 314.98 134.082 314.761C134.976 313.467 138.225 313.498 142.383 313.667C146.541 313.837 156.143 314.006 166.854 314.006C174.746 314.006 178.673 315.4 181.268 316.316C182.076 316.637 182.907 316.894 183.755 317.086C185.041 317.309 187.759 318.156 190.908 319.142C194.897 320.382 199.864 321.929 203.49 322.699L205.177 323.046C210.174 324.085 211.075 324.27 211.922 326.126C212.946 328.374 209.789 331.955 207.171 333.425C205.177 334.55 197.692 336.29 190.3 336.29ZM134.668 315.808C135.915 316.362 144.862 320.343 150.653 322.538C152.586 323.261 155.373 324.401 158.607 325.718C166.061 328.759 175.339 332.548 181.576 334.426C190.369 337.083 204.029 334.311 206.786 332.763C209.35 331.323 211.945 328.066 211.213 326.457C210.543 324.978 210.058 324.84 205.015 323.793L203.328 323.438C199.663 322.668 194.674 321.128 190.67 319.866C187.543 318.895 184.849 318.048 183.609 317.833C182.72 317.646 181.847 317.389 180.999 317.063C178.458 316.162 174.608 314.791 166.846 314.791C156.12 314.791 146.402 314.622 142.345 314.453C139.596 314.337 135.414 314.168 134.706 315.223C134.653 315.31 134.622 315.409 134.616 315.511C134.609 315.612 134.627 315.714 134.668 315.808Z" fill="#263238"/>
<path d="M185.58 334.696C178.889 326.118 181.73 318.249 181.784 318.172L182.5 318.441C182.5 318.518 179.774 326.003 186.188 334.218L185.58 334.696Z" fill="#263238"/>
<path d="M181.137 330.399C178.211 325.24 179.174 317.879 179.22 317.571L179.99 317.679C179.99 317.748 179.02 325.094 181.815 329.999L181.137 330.399Z" fill="#263238"/>
<path d="M225.412 157.011C225.412 157.011 218.22 156.857 215.402 155.917C212.584 154.978 204.622 151.852 199.925 153.107C195.228 154.362 193.357 155.917 190.685 159.205C188.013 162.493 177.595 187.695 177.711 195.472C177.65 197.585 178.315 199.655 179.596 201.336C180.877 203.018 182.695 204.209 184.748 204.712C184.748 204.712 173.198 222.53 174.269 223.623C175.339 224.717 220.546 244.729 223.988 243.482C227.43 242.234 228.993 239.57 229.455 236.444C229.917 233.318 244.308 215.338 244.308 215.338L256.82 196.735C256.82 196.735 265.106 184.23 263.073 179.225C261.04 174.22 243.368 165.781 243.368 165.781L225.412 157.011Z" fill="#00BE76"/>
<path d="M223.633 243.898C220.507 243.898 208.233 239.016 198.116 234.773C186.835 230.03 174.669 224.54 174.015 223.885C172.944 222.815 178.866 213.105 184.155 204.92C182.149 204.3 180.398 203.044 179.169 201.34C177.939 199.637 177.298 197.58 177.341 195.48C177.179 187.487 187.728 162.262 190.431 158.959C193.134 155.656 195.051 154.015 199.856 152.73C204.16 151.582 210.875 153.923 214.486 155.186L215.564 155.555C218.29 156.464 225.381 156.626 225.458 156.626L225.612 156.664L243.592 165.419C244.316 165.766 261.417 173.989 263.481 179.071C265.545 184.153 257.536 196.419 257.19 196.935L244.685 215.538C240.681 220.543 230.263 234.018 229.893 236.49C229.339 240.178 227.414 242.65 224.172 243.828C223.999 243.885 223.816 243.908 223.633 243.898ZM174.592 223.369C175.524 224.032 186.604 229.106 198.562 234.149C220.122 243.189 223.379 243.305 223.872 243.128C226.829 242.05 228.584 239.786 229.093 236.398C229.57 233.202 243.438 215.846 244.023 215.107L256.512 196.527C256.589 196.412 264.659 184.138 262.726 179.379C260.794 174.621 243.399 166.22 243.222 166.135L225.32 157.419C224.457 157.419 217.989 157.211 215.31 156.31L214.224 155.933C210.952 154.793 204.129 152.414 200.056 153.5C195.436 154.724 193.626 156.264 191.032 159.467C188.614 162.455 177.988 187.695 178.142 195.488C178.098 197.507 178.74 199.481 179.962 201.089C181.184 202.697 182.915 203.844 184.872 204.343L185.426 204.458L185.118 204.928C179.79 213.059 174.461 222.13 174.592 223.369Z" fill="#263238"/>
<path d="M256.836 196.72C256.836 196.72 265.121 184.215 263.088 179.21C261.055 174.205 243.384 165.766 243.384 165.766L225.412 157.011C225.412 157.011 218.22 156.857 215.402 155.917C212.584 154.978 204.622 151.852 199.925 153.107C195.228 154.362 193.357 155.917 190.685 159.205C188.013 162.493 177.595 187.695 177.711 195.472C177.691 197.574 178.355 199.626 179.605 201.316C196.807 189.651 226.382 170.362 230.848 172.595C235.314 174.828 241.413 200.2 244.593 214.899L256.836 196.72Z" fill="#263238"/>
<path d="M244.423 215.862L244.239 214.984C238.795 189.851 233.859 174.528 230.687 172.942C227.514 171.356 209.026 181.835 179.867 201.64L179.566 201.84L179.343 201.555C178.05 199.795 177.359 197.664 177.372 195.48C177.21 187.487 187.759 162.262 190.462 158.959C193.164 155.656 195.082 154.015 199.887 152.73C204.191 151.582 210.905 153.923 214.517 155.186L215.595 155.555C218.32 156.464 225.412 156.626 225.489 156.626L225.643 156.664L243.623 165.419C244.346 165.766 261.448 173.989 263.512 179.071C265.575 184.153 257.567 196.419 257.221 196.935L244.423 215.862ZM230.001 172.056C230.355 172.043 230.708 172.109 231.033 172.249C235.353 174.413 240.866 195.903 244.793 213.937L256.512 196.512C256.62 196.342 264.659 184.107 262.726 179.356C260.794 174.605 243.399 166.197 243.222 166.112L225.32 157.396C224.457 157.396 217.989 157.188 215.31 156.287L214.224 155.91C210.952 154.77 204.129 152.391 200.056 153.476C195.436 154.701 193.626 156.241 191.032 159.444C188.614 162.432 177.988 187.672 178.142 195.465C178.129 197.361 178.687 199.218 179.743 200.793C199.494 187.379 223.51 172.056 230.001 172.056Z" fill="#263238"/>
<path d="M220.492 175.675C219.679 169.666 220.277 163.55 222.24 157.811L222.956 158.089C221.042 163.702 220.46 169.683 221.254 175.56L220.492 175.675Z" fill="white"/>
<path d="M238.995 182.274L238.402 181.782C239.058 180.999 239.658 180.17 240.196 179.302L240.851 179.71C240.29 180.605 239.67 181.462 238.995 182.274Z" fill="white"/>
<path d="M241.983 177.631L241.282 177.3C242.658 174.512 243.304 171.42 243.161 168.314L243.931 168.23C244.105 171.479 243.434 174.718 241.983 177.631Z" fill="white"/>
<path d="M245.001 176.053L244.269 175.806C244.924 173.574 245.185 171.245 245.039 168.923L245.809 168.861C245.972 171.287 245.699 173.723 245.001 176.053Z" fill="white"/>
<path d="M183.131 221.723L182.491 222.152L188.027 230.409L188.667 229.98L183.131 221.723Z" fill="#263238"/>
<path d="M179.458 216.189L178.818 216.618L181.099 220.021L181.739 219.592L179.458 216.189Z" fill="#263238"/>
<path d="M186.971 224.029L186.304 224.413L189.9 230.668L190.568 230.284L186.971 224.029Z" fill="#263238"/>
<path d="M185.541 214.967L184.914 215.413L190.699 223.545L191.326 223.098L185.541 214.967Z" fill="#263238"/>
<path d="M224.211 151.69C224.773 151.69 224.357 162.116 223.379 167.252C222.401 172.388 225.189 180.873 230.186 181.012C235.183 181.15 239.495 175.452 240.751 171.564C241.378 169.814 241.842 168.009 242.137 166.174L225.197 148.941L224.211 151.69Z" fill="white"/>
<path d="M230.371 181.389H230.178C229.32 181.329 228.485 181.079 227.735 180.658C226.984 180.238 226.335 179.656 225.836 178.956C223.526 176.099 222.294 170.925 223.002 167.175C223.934 162.247 224.273 153.507 223.98 152.067H223.672L225.027 148.217L242.56 165.989V166.166C242.267 168.042 241.795 169.886 241.151 171.671C239.842 175.629 235.568 181.389 230.371 181.389ZM224.642 151.628C225.189 153.215 224.565 163.04 223.757 167.321C223.087 170.871 224.265 175.791 226.436 178.471C226.864 179.086 227.424 179.599 228.076 179.971C228.727 180.342 229.454 180.564 230.202 180.619C234.86 180.757 239.118 175.367 240.381 171.433C240.967 169.752 241.417 168.027 241.728 166.274L225.343 149.619L224.642 151.628Z" fill="#263238"/>
<path d="M223.78 164.626L236.708 162.894L224.388 151.96C224.627 153.369 224.38 159.821 223.78 164.626Z" fill="#263238"/>
<path d="M223.31 165.073L223.372 164.58C223.988 159.698 224.211 153.376 223.949 152.036L223.726 150.92L237.586 163.163L223.31 165.073ZM224.85 152.899C224.893 156.668 224.693 160.436 224.249 164.179L235.853 162.639L224.85 152.899Z" fill="#263238"/>
<path d="M225.05 139.178C225.05 139.178 228.246 136.683 236.023 136.267C243.8 135.851 248.112 137.376 252.277 138.762C254.443 139.435 256.537 140.32 258.53 141.403C258.53 141.403 265.46 142.096 265.76 140.71C266.06 139.324 259.646 135.982 259.646 135.982C259.646 135.982 260.131 126.449 256.936 121.583C253.74 116.717 240.889 114.453 234.775 116.532C228.662 118.611 224.634 123.061 223.225 127.651C222.207 131.644 221.741 135.758 221.839 139.878C221.993 140.294 225.05 139.178 225.05 139.178Z" fill="#263238"/>
<path d="M261.987 141.98C260.686 141.98 259.361 141.872 258.491 141.788L258.337 141.734C256.373 140.67 254.31 139.798 252.177 139.131L251.815 139.008C247.75 137.653 243.553 136.244 236.069 136.644C228.584 137.045 225.343 139.462 225.289 139.485L225.189 139.539C223.895 140.009 222.247 140.517 221.755 140.309C221.632 140.25 221.538 140.145 221.493 140.017C221.356 135.819 221.823 131.623 222.879 127.558C224.419 122.422 228.839 118.18 234.66 116.193C240.989 114.029 253.987 116.409 257.267 121.398C260.239 125.926 260.101 134.211 260.047 135.782C262.141 136.891 266.43 139.347 266.145 140.81C265.945 141.734 263.989 141.98 261.987 141.98ZM258.653 141.025C262.079 141.364 265.267 141.179 265.383 140.633C265.498 140.086 262.734 138.03 259.469 136.328L259.246 136.213V135.967C259.246 135.874 259.685 126.496 256.597 121.799C253.509 117.102 240.851 114.869 234.883 116.901C229.301 118.803 225.081 122.861 223.595 127.758C222.317 131.97 222.116 138.315 222.186 139.586C223.096 139.413 223.988 139.155 224.85 138.816C225.312 138.477 228.615 136.251 235.992 135.859C243.615 135.451 247.888 136.875 252.023 138.253L252.385 138.377C254.553 139.06 256.652 139.947 258.653 141.025Z" fill="#263238"/>
<path d="M226.436 133.349C226.436 133.349 238.664 129.591 243.669 130.269C248.674 130.946 258.253 135.543 258.253 135.543C258.253 135.543 262.703 137.907 264.089 138.739C265.475 139.57 267.169 140.132 265.76 140.687L264.366 141.241C264.366 141.241 263.535 140.409 259.369 138.461C255.203 136.513 245.748 131.932 242.137 131.932C238.525 131.932 225.743 135.404 225.743 135.404L226.436 133.349Z" fill="white"/>
<path d="M264.274 141.719L264.097 141.534C264.097 141.534 263.196 140.694 259.2 138.839L258.114 138.323C253.663 136.236 245.378 132.34 242.137 132.34C238.618 132.34 225.967 135.766 225.843 135.797L225.15 135.99L226.136 133.033L226.328 132.979C226.829 132.825 238.695 129.206 243.715 129.899C248.735 130.592 258.029 135.027 258.422 135.212C258.615 135.32 262.903 137.599 264.289 138.423C264.567 138.592 264.859 138.754 265.136 138.9C266.045 139.385 266.676 139.732 266.676 140.286C266.676 140.717 266.23 140.933 265.906 141.056L264.274 141.719ZM242.137 131.57C245.548 131.57 253.617 135.358 258.437 137.63L259.531 138.138C261.251 138.868 262.895 139.768 264.436 140.825L265.614 140.348L265.845 140.24C265.511 139.987 265.152 139.768 264.775 139.586C264.49 139.432 264.182 139.27 263.889 139.093C262.526 138.277 258.122 135.936 258.076 135.905C258.029 135.874 248.497 131.347 243.615 130.669C239.08 130.045 228.3 133.187 226.737 133.657L226.336 134.873C229.077 134.142 238.964 131.57 242.137 131.57Z" fill="#263238"/>
<path d="M258.53 141.403C258.53 141.403 257.421 141.957 256.728 145.43C256.035 149.401 255.004 153.307 253.648 157.103C251.838 162.108 244.754 167.521 240.312 167.798C235.869 168.076 229.886 162.247 228.361 159.606C226.837 156.964 224.211 151.69 224.211 151.69L222.825 138.215C222.825 138.215 228.384 134.465 232.55 133.911C236.716 133.356 244.778 133.911 249.22 135.02C253.663 136.128 258.53 141.403 258.53 141.403Z" fill="white"/>
<path d="M240.011 168.199C235.33 168.199 229.539 162.378 228.053 159.798C226.567 157.219 223.895 151.913 223.872 151.859L223.834 151.721L222.417 138.015L222.609 137.892C222.84 137.738 228.292 134.042 232.496 133.518C236.7 132.994 244.816 133.518 249.313 134.642C253.81 135.766 258.614 140.925 258.815 141.141L259.161 141.518L258.715 141.742C258.661 141.742 257.721 142.427 257.105 145.507L256.928 146.4C256.269 150.086 255.3 153.71 254.033 157.234C252.254 162.154 245.093 167.891 240.358 168.183L240.011 168.199ZM224.611 151.574C224.919 152.183 227.322 156.964 228.738 159.413C230.155 161.862 235.969 167.675 240.327 167.421C244.454 167.159 251.5 162.031 253.332 156.972C254.589 153.487 255.547 149.901 256.197 146.254L256.374 145.361C256.859 142.927 257.56 141.842 257.998 141.372C256.913 140.271 252.847 136.305 249.151 135.389C244.716 134.28 236.685 133.741 232.627 134.28C229.023 134.765 224.265 137.745 223.256 138.4L224.611 151.574Z" fill="#263238"/>
<path d="M247.18 148.417C246.456 144.113 249.775 140.463 249.914 140.309L250.476 140.833C250.476 140.833 247.28 144.36 247.935 148.287L247.18 148.417Z" fill="#263238"/>
<path d="M222.54 131.4C222.54 131.4 220.038 134.873 219.76 137.653C219.483 140.433 220.315 146.685 220.869 150.019C221.423 153.353 224.35 155.409 225.597 154.878C226.844 154.346 230.456 151.405 230.456 149.88C230.456 148.356 228.099 147.378 226.983 143.074C225.866 138.769 225.32 136.405 226.428 133.349C227.537 130.292 227.684 127.959 226.151 128.482C224.619 129.006 222.54 131.4 222.54 131.4Z" fill="white"/>
<path d="M225.143 155.355C224.668 155.337 224.205 155.203 223.795 154.962C222.921 154.441 222.172 153.733 221.603 152.889C221.033 152.045 220.657 151.087 220.499 150.081C219.953 146.793 219.098 140.463 219.383 137.614C219.668 134.765 222.132 131.324 222.232 131.177C222.324 131.077 224.403 128.736 226.005 128.151C226.205 128.051 226.431 128.015 226.652 128.046C226.874 128.078 227.08 128.176 227.245 128.328C228.146 129.229 227.337 131.963 226.775 133.51C225.72 136.413 226.213 138.639 227.345 143.004C227.787 144.742 228.61 146.36 229.755 147.74C230.345 148.323 230.722 149.088 230.825 149.911C230.825 151.721 226.975 154.716 225.735 155.263C225.546 155.334 225.344 155.365 225.143 155.355ZM222.833 131.639C222.655 131.893 220.392 135.143 220.138 137.691C219.86 140.463 220.7 146.7 221.246 149.958C221.386 150.846 221.718 151.693 222.218 152.44C222.718 153.187 223.374 153.817 224.142 154.285C224.329 154.411 224.541 154.499 224.763 154.541C224.985 154.583 225.214 154.58 225.435 154.531C226.775 153.931 230.055 151.089 230.055 149.911C230.055 149.395 229.678 148.903 229.147 148.217C227.937 146.753 227.066 145.038 226.598 143.197C225.427 138.677 224.919 136.359 226.051 133.241C226.975 130.715 227.037 129.206 226.698 128.875C226.629 128.798 226.482 128.798 226.267 128.875C224.935 129.36 223.025 131.447 222.848 131.67L222.833 131.639Z" fill="#263238"/>
<path d="M241.651 167.575C239.557 167.568 237.491 167.096 235.601 166.193C233.712 165.29 232.046 163.979 230.725 162.355C227.214 158.227 223.556 151.944 223.795 146.662V146.331H224.126C225.112 146.238 248.335 144.221 257.937 155.632L258.106 155.833L257.983 156.064C257.806 156.41 253.525 164.534 246.51 166.844C244.937 167.334 243.299 167.58 241.651 167.575ZM224.588 147.07C224.496 152.06 227.976 157.966 231.318 161.885C233.566 164.526 238.502 168.584 246.325 166.074C252.408 164.133 256.489 157.265 257.236 155.933C248.397 145.738 227.499 146.831 224.588 147.07Z" fill="#263238"/>
<path d="M232.612 153.677L231.934 153.307C232.475 152.327 232.814 151.248 232.931 150.134C233.047 149.02 232.938 147.895 232.612 146.824L233.328 146.546C233.706 147.72 233.838 148.959 233.715 150.186C233.591 151.413 233.216 152.602 232.612 153.677Z" fill="#263238"/>
<path d="M232.773 163.533L232.327 162.901C234.211 161.357 235.78 159.465 236.947 157.326C239.257 153.476 238.987 147.316 238.98 147.255H239.75C239.75 147.517 240.004 153.669 237.617 157.742C236.397 159.971 234.751 161.938 232.773 163.533Z" fill="#263238"/>
<path d="M247.18 166.197C246.935 164.304 246.985 162.384 247.326 160.507C247.881 157.581 250.568 150.982 250.683 150.704L251.392 150.997C251.392 151.066 248.62 157.804 248.081 160.653C247.763 162.432 247.717 164.249 247.942 166.043L247.18 166.197Z" fill="#263238"/>
<path d="M252.94 158.943L252.17 158.874C252.351 156.78 253.353 154.842 254.957 153.484L255.427 154.1C254.005 155.334 253.114 157.069 252.94 158.943Z" fill="#263238"/>
<path d="M253.84 161.292C241.767 151.39 227.661 154.115 227.483 154.146L227.329 153.376C227.476 153.376 241.959 150.543 254.333 160.684L253.84 161.292Z" fill="#263238"/>
<path d="M240.874 142.358C240.712 143.297 240.104 143.982 239.48 143.898C238.856 143.813 238.517 142.943 238.71 141.996C238.902 141.049 239.48 140.371 240.096 140.456C240.712 140.54 241.02 141.41 240.874 142.358Z" fill="#263238"/>
<path d="M252.955 144.76C252.793 145.707 252.185 146.392 251.569 146.3C250.953 146.208 250.607 145.353 250.799 144.406C250.992 143.459 251.569 142.773 252.185 142.866C252.801 142.958 253.117 143.844 252.955 144.76Z" fill="#263238"/>
<path d="M243.692 140.587C240.073 137.507 237.039 139.162 236.908 139.239L236.523 138.569C236.523 138.569 240.142 136.529 244.223 140.001L243.692 140.587Z" fill="#263238"/>
<path d="M254.98 142.45C253.44 141.434 250.837 141.811 250.807 141.819L250.691 141.049C250.814 141.049 253.64 140.617 255.411 141.819L254.98 142.45Z" fill="#263238"/>
<path d="M245.193 152.907C244.288 152.87 243.406 152.605 242.629 152.137L243.037 151.482C243.692 151.869 244.433 152.089 245.193 152.121C246.109 152.014 246.988 151.701 247.765 151.205L248.181 151.852C247.283 152.436 246.259 152.798 245.193 152.907Z" fill="#263238"/>
<path d="M169.91 156.387C169.91 156.387 171.158 163.733 174.446 165.766C177.734 167.798 178.35 169.362 178.35 169.362L176.479 174.836C176.479 174.836 177.572 176.869 181.792 177.339C186.011 177.808 186.951 176.245 186.951 176.245C187.351 174.218 187.925 172.229 188.668 170.301C189.607 168.268 190.208 164.826 189.761 162.801C189.314 160.776 180.521 148.102 180.521 148.102C180.521 148.102 177.549 143.097 174.892 144.19C172.236 145.284 168.794 147.316 169.102 149.981C169.41 152.645 169.91 156.387 169.91 156.387Z" fill="white"/>
<path d="M183.27 177.808C182.755 177.806 182.241 177.776 181.73 177.716C177.356 177.231 176.163 175.106 176.117 175.021L176.032 174.867L177.911 169.392C177.695 169.007 176.817 167.706 174.215 166.097C170.827 163.995 169.556 156.757 169.51 156.456C169.51 156.456 169.04 152.706 168.74 150.042C168.378 146.962 172.351 144.852 174.761 143.882C177.687 142.673 180.737 147.732 180.868 147.948C181.206 148.448 189.653 160.676 190.108 162.755C190.616 164.949 189.923 168.491 188.991 170.509C188.259 172.407 187.692 174.365 187.297 176.361L187.251 176.484C187.243 176.507 186.419 177.808 183.27 177.808ZM176.902 174.79C177.225 175.213 178.511 176.592 181.838 176.961C185.295 177.346 186.396 176.315 186.589 176.091C186.986 174.062 187.566 172.072 188.321 170.147C189.207 168.237 189.861 164.865 189.392 162.893C189.022 161.284 182.646 151.836 180.221 148.325C179.451 146.993 176.987 143.767 175.062 144.56C173.283 145.284 169.194 147.27 169.51 149.95C169.826 152.629 170.28 156.11 170.28 156.348C170.28 156.587 171.589 163.563 174.638 165.458C177.988 167.529 178.673 169.169 178.704 169.238L178.758 169.369L176.902 174.79Z" fill="#263238"/>
<path d="M186.951 176.245C186.951 176.245 187.205 174.967 187.597 173.496C183.917 173.766 179.897 172.48 177.587 171.564L176.471 174.836C176.471 174.836 177.564 176.869 181.784 177.339C186.004 177.808 186.951 176.245 186.951 176.245Z" fill="#263238"/>
<path d="M183.27 177.808C182.755 177.806 182.241 177.776 181.73 177.716C177.356 177.231 176.163 175.106 176.117 175.021L176.032 174.867L177.341 171.063L177.718 171.21C179.805 172.033 183.878 173.381 187.551 173.111H188.09L187.944 173.635C187.567 175.075 187.305 176.345 187.305 176.353L187.259 176.476C187.243 176.507 186.419 177.808 183.27 177.808ZM176.902 174.79C177.225 175.213 178.511 176.592 181.838 176.961C185.295 177.346 186.396 176.315 186.589 176.091C186.65 175.814 186.827 174.952 187.097 173.92C183.929 173.886 180.796 173.262 177.857 172.08L176.902 174.79Z" fill="#263238"/>
<path d="M253.394 204.697L248.658 202.918L254.395 200.369L253.394 204.697Z" fill="#263238"/>
<path d="M253.671 205.213L247.642 202.949L254.949 199.699L253.671 205.213ZM249.675 202.903L253.117 204.196L253.887 201.047L249.675 202.903Z" fill="#263238"/>
<path d="M237.293 186.248L225.566 187.495C225.566 187.495 220.091 180.303 213.061 175.945C206.031 171.587 195.082 160.468 195.082 160.468L191.794 156.872L185.703 162.031C185.703 162.031 193.673 173.135 194.766 175.006C195.859 176.877 201.334 190.329 206.963 195.796C212.592 201.263 217.127 206.745 219.283 206.576C221.439 206.406 234.444 205.036 240.073 205.036C245.702 205.036 252.27 201.755 252.739 201.132C253.209 200.508 254.61 198.313 252.27 194.564C250.409 191.535 247.83 189.012 244.762 187.218C242.922 186.248 237.293 186.248 237.293 186.248Z" fill="white"/>
<path d="M219.221 206.961C217.412 206.961 214.601 204.104 210.797 200.185C209.488 198.845 208.141 197.467 206.693 196.057C202.197 191.692 197.777 182.197 195.652 177.685C195.097 176.499 194.658 175.568 194.435 175.183C193.365 173.35 185.464 162.355 185.387 162.239L185.18 161.954L191.832 156.325L195.367 160.175C195.467 160.276 206.347 171.287 213.262 175.575C219.668 179.556 224.85 185.932 225.735 187.064L237.285 185.832C237.516 185.832 243.022 185.832 244.985 186.81C248.113 188.641 250.742 191.214 252.639 194.302C254.895 197.905 253.894 200.231 253.094 201.301C252.478 202.125 245.702 205.359 240.119 205.359C235.853 205.359 227.183 206.191 222.525 206.637C220.985 206.776 219.876 206.884 219.352 206.922L219.221 206.961ZM186.219 162.077C187.505 163.871 194.096 173.073 195.097 174.798C195.336 175.206 195.759 176.107 196.345 177.362C198.454 181.866 202.836 191.222 207.232 195.511C208.68 196.92 210.035 198.306 211.344 199.646C214.771 203.149 217.743 206.191 219.214 206.191H219.283C219.806 206.191 220.938 206.044 222.432 205.898C227.106 205.451 235.799 204.62 240.104 204.62C245.702 204.62 252.054 201.355 252.462 200.862C253.14 199.961 254.002 197.952 251.969 194.702C250.154 191.729 247.63 189.253 244.624 187.495C242.906 186.633 237.694 186.594 237.309 186.594L225.389 187.88L225.258 187.711C225.204 187.634 219.745 180.519 212.853 176.23C205.962 171.941 194.912 160.83 194.805 160.699L191.725 157.365L186.219 162.077Z" fill="#263238"/>
<path d="M256.204 176.245C256.204 176.245 248.389 179.21 243.23 182.498C238.071 185.786 237.293 186.248 237.293 186.248C237.293 186.248 245.578 188.904 249.174 193.593C252.77 198.283 253.394 204.697 253.394 204.697C253.394 204.697 263.088 200.947 266.214 191.561C269.341 182.174 266.838 179.371 264.182 177.177C261.525 174.982 257.929 175.776 257.929 175.776" fill="#00BE76"/>
<path d="M253.055 205.236L253.009 204.735C253.009 204.666 252.347 198.375 248.866 193.832C245.386 189.289 237.255 186.64 237.17 186.617L236.4 186.34L237.132 185.901C237.132 185.901 237.986 185.385 243.06 182.159C248.135 178.933 256.027 175.899 256.112 175.868L256.382 176.584C256.305 176.584 248.543 179.579 243.476 182.806C240.489 184.708 238.972 185.662 238.217 186.132C240.389 186.902 246.495 189.412 249.513 193.347C252.531 197.282 253.517 202.479 253.748 204.127C255.688 203.249 263.242 199.368 265.883 191.43C268.879 182.459 266.692 179.703 263.974 177.47C261.494 175.429 258.083 176.137 258.045 176.145L257.883 175.375C258.037 175.375 261.695 174.605 264.467 176.861C267.239 179.117 269.764 182.251 266.615 191.661C263.465 201.07 253.671 204.989 253.571 205.028L253.055 205.236Z" fill="#263238"/>
<path d="M185.164 166.382C184.996 166.382 184.829 166.366 184.664 166.335C184.287 166.263 183.931 166.113 183.616 165.894C183.302 165.675 183.037 165.393 182.839 165.065L178.496 157.888L184.063 154.986L187.628 162.485C187.893 163.05 187.957 163.688 187.81 164.295C187.663 164.901 187.314 165.439 186.82 165.82C186.345 166.185 185.763 166.383 185.164 166.382ZM179.582 158.196L183.493 164.665C183.638 164.897 183.83 165.096 184.057 165.249C184.284 165.401 184.54 165.504 184.81 165.55C185.165 165.62 185.533 165.59 185.871 165.463C186.21 165.336 186.507 165.117 186.729 164.831C186.95 164.545 187.087 164.203 187.125 163.843C187.163 163.483 187.1 163.119 186.943 162.793L183.717 156.017L179.582 158.196Z" fill="#263238"/>
<path d="M133.59 56.98L122.04 66.0352L156.543 126.665L161.163 128.351C161.163 128.351 164.744 129.191 166.014 127.512C167.285 125.833 167.693 118.665 167.693 118.665L133.59 56.98Z" fill="white"/>
<path d="M163.073 128.936C162.392 128.933 161.714 128.861 161.048 128.721L156.235 126.973L156.166 126.85L121.516 65.9274L133.72 56.3871L168.055 118.58V118.695C168.055 118.988 167.616 125.987 166.299 127.751C165.56 128.698 164.22 128.936 163.073 128.936ZM161.263 127.982C161.263 127.982 164.582 128.752 165.675 127.273C166.63 125.987 167.146 120.79 167.277 118.742L133.466 57.5498L122.502 66.1276L156.767 126.342L161.263 127.982Z" fill="#263238"/>
<path d="M165.984 127.504C167.246 125.818 167.662 118.657 167.662 118.657L166.253 116.085L156.081 111.85L156.505 126.657L161.125 128.344C161.125 128.344 164.713 129.183 165.984 127.504Z" fill="#00BE76"/>
<path d="M163.073 128.936C162.392 128.933 161.714 128.861 161.048 128.721L156.127 126.934L155.681 111.265L166.522 115.777L168.062 118.565V118.68C168.062 118.973 167.624 125.972 166.307 127.735C165.56 128.698 164.22 128.936 163.073 128.936ZM161.263 127.982C161.263 127.982 164.582 128.752 165.675 127.273C166.63 125.987 167.146 120.79 167.277 118.742L165.976 116.385L156.489 112.42L156.882 126.38L161.263 127.974V127.982Z" fill="#263238"/>
<path d="M174.13 127.935C174.13 127.935 170.065 123.246 164.12 124.655C158.176 126.064 155.835 133.249 156.928 135.435C158.022 137.622 160.363 136.975 161.926 135.905L168.655 131.216L175.062 129.029L174.13 127.935Z" fill="white"/>
<path d="M159.208 137.291C158.948 137.295 158.689 137.264 158.438 137.199C158.029 137.091 157.65 136.892 157.328 136.618C157.007 136.343 156.752 135.999 156.582 135.612C156.004 134.45 156.282 132.24 157.267 130.122C157.878 128.701 158.803 127.437 159.972 126.425C161.142 125.412 162.526 124.678 164.02 124.278C170.118 122.83 174.361 127.635 174.407 127.681L175.716 129.221L168.786 131.57L162.11 136.19C161.268 136.826 160.26 137.208 159.208 137.291ZM166.33 124.779C165.617 124.78 164.907 124.863 164.213 125.025C160.455 125.918 158.599 129.114 157.976 130.415C156.99 132.525 156.882 134.434 157.283 135.235C157.405 135.522 157.59 135.778 157.824 135.983C158.059 136.188 158.337 136.338 158.638 136.421C159.183 136.495 159.737 136.457 160.267 136.309C160.797 136.16 161.29 135.905 161.718 135.559L168.44 130.869L168.532 130.823L174.407 128.821L173.838 128.159C173.784 128.128 170.796 124.779 166.33 124.779Z" fill="#263238"/>
<path d="M168.501 146.693C168.501 146.693 163.342 143.882 162.095 141.226C160.848 138.569 161.625 132.756 166.784 129.499C171.943 126.241 177.564 128.089 181.322 130.908C185.08 133.726 188.514 140.286 190.231 147.162C191.948 154.038 193.049 158.104 193.049 158.104L195.236 160.768L188.829 166.859C187.13 165.662 185.648 164.183 184.448 162.485C182.138 159.359 179.443 152.013 177.726 148.571C176.009 145.13 172.883 144.66 172.259 145.291C171.635 145.923 168.501 146.693 168.501 146.693Z" fill="white"/>
<path d="M188.876 167.344L188.622 167.19C186.882 165.967 185.366 164.454 184.14 162.716C182.546 160.583 180.844 156.618 179.343 153.114C178.619 151.444 177.949 149.873 177.38 148.741C177.034 147.936 176.506 147.223 175.838 146.656C175.17 146.09 174.38 145.686 173.53 145.476C173.21 145.379 172.865 145.409 172.567 145.561C171.897 146.231 169.171 146.931 168.632 147.101H168.486L168.355 147.031C168.14 146.916 163.073 144.129 161.787 141.387C160.432 138.515 161.371 132.509 166.615 129.175C173.183 124.994 179.705 129.175 181.591 130.6C185.28 133.364 188.837 139.84 190.647 147.07C192.187 153.345 193.272 157.319 193.434 157.927L195.798 160.799L188.876 167.344ZM173.067 144.668C173.251 144.669 173.433 144.684 173.614 144.714C174.593 144.94 175.505 145.391 176.279 146.031C177.053 146.671 177.667 147.483 178.072 148.402C178.642 149.542 179.328 151.136 180.044 152.814C181.53 156.271 183.216 160.198 184.756 162.254C185.89 163.815 187.246 165.2 188.783 166.366L194.712 160.73L192.679 158.204C192.679 158.166 191.563 154.062 189.861 147.255C188.09 140.178 184.648 133.88 181.091 131.216C179.335 129.899 173.137 125.91 166.992 129.822C162.118 132.902 161.209 138.438 162.441 141.056C163.519 143.366 167.754 145.83 168.555 146.285C169.741 145.977 171.635 145.399 171.982 145.014C172.286 144.764 172.675 144.64 173.067 144.668Z" fill="#263238"/>
<path d="M188.829 166.859L195.236 160.768L193.049 158.104L192.895 157.527L185.149 163.371C186.194 164.711 187.435 165.887 188.829 166.859Z" fill="#263238"/>
<path d="M188.876 167.344L188.622 167.19C187.193 166.193 185.922 164.989 184.848 163.617L184.594 163.302L193.118 156.872L193.395 157.927L195.759 160.799L188.876 167.344ZM185.703 163.433C186.611 164.528 187.644 165.513 188.783 166.366L194.712 160.73L192.672 158.181L185.703 163.433Z" fill="#263238"/>
<path d="M163.727 142.666L162.957 142.596C162.957 142.504 163.851 133.241 171.204 131.008C178.558 128.775 181.399 130.5 181.522 130.577L181.122 131.231C181.122 131.231 178.319 129.645 171.427 131.739C164.536 133.834 163.735 142.573 163.727 142.666Z" fill="#263238"/>
<path d="M167.3 145.415L166.576 145.16C166.7 144.806 169.656 136.352 174.661 135.066C179.435 133.834 183.293 133.726 186.604 137.206L186.05 137.738C182.97 134.519 179.489 134.611 174.854 135.813C170.219 137.014 167.331 145.33 167.3 145.415Z" fill="#263238"/>
<path d="M176.479 174.836C176.479 174.836 171.158 187.495 169.441 193.909C167.724 200.323 170.688 210.479 173.822 210.949C176.956 211.419 190.077 199.222 192.11 193.439L194.142 187.657L187.266 179.525L186.951 176.245C186.951 176.245 183.201 177.962 176.479 174.836Z" fill="white"/>
<path d="M173.976 211.342C173.904 211.35 173.832 211.35 173.76 211.342C172.937 211.219 172.136 210.572 171.381 209.417C169.202 206.09 167.716 198.868 169.071 193.824C170.773 187.464 176.07 174.828 176.124 174.705L176.278 174.336L176.64 174.505C183.093 177.5 186.758 175.922 186.789 175.906L187.282 175.691L187.636 179.387L194.566 187.587L192.51 193.57C190.523 199.114 177.718 211.342 173.976 211.342ZM176.679 175.352C175.793 177.477 171.343 188.303 169.81 194.009C168.509 198.86 169.934 205.79 172.02 208.978C172.207 209.353 172.468 209.687 172.787 209.96C173.106 210.232 173.476 210.438 173.876 210.564H174.038C177.195 210.564 189.761 198.96 191.748 193.293L193.703 187.718L186.889 179.664L186.612 176.753C185.387 177.1 181.961 177.716 176.679 175.352Z" fill="#263238"/>
<path d="M186.35 199.484L185.58 199.268C186.65 195.611 186.812 179.679 186.82 179.525H187.59C187.644 180.18 187.482 195.726 186.35 199.484Z" fill="#263238"/>
<path d="M174.284 223.608C171.434 228.158 168.928 232.915 166.784 237.838C164.128 244.406 166.315 252.537 168.193 257.226C170.072 261.915 177.726 267.236 190.077 268.476C202.428 269.716 203.991 268.476 209.15 266.759C214.309 265.042 216.342 265.989 216.342 265.989C216.342 265.989 217.882 266.612 217.589 272.079C217.296 277.546 218.528 290.059 222.286 295.38C226.044 300.7 232.296 315.076 234.321 318.826C236.346 322.576 236.631 334.149 236.631 336.028C236.661 336.834 237.006 337.596 237.592 338.15C238.178 338.705 238.958 339.007 239.765 338.992C241.166 338.992 263.211 340.402 263.211 340.402C263.211 340.402 272.744 339.632 272.906 336.96C273.067 334.288 271.366 335.42 268.216 333.21C265.067 331 257.298 324.94 257.298 324.94C257.298 324.94 255.111 320.382 249.49 311.003C243.869 301.624 239.334 268.322 235.892 261.292C232.45 254.262 229.793 248.31 225.258 244.875C220.723 241.441 214.001 238.307 202.158 234.396C190.316 230.484 182.462 227.366 182.462 227.366L174.284 223.608Z" fill="#00BE76"/>
<path d="M263.273 340.779C262.996 340.779 241.174 339.37 239.796 339.37C238.888 339.378 238.012 339.033 237.355 338.406C236.698 337.779 236.311 336.92 236.277 336.013C236.277 333.479 235.869 322.491 233.967 319.003C233.328 317.825 232.257 315.569 231.018 312.951C228.276 307.161 224.511 299.222 221.955 295.588C218.012 290.005 216.896 277.3 217.196 272.056C217.473 267.074 216.18 266.335 216.164 266.328C216.149 266.32 214.155 265.488 209.234 267.098L207.625 267.652C203.529 269.084 201.057 269.962 190 268.83C177.326 267.552 169.71 262.131 167.793 257.334C166.392 253.838 163.458 244.914 166.392 237.66C168.545 232.719 171.062 227.945 173.922 223.377L174.107 223.092L182.538 226.981C182.6 226.981 190.462 230.145 202.197 234.003C213.785 237.814 220.738 240.933 225.451 244.537C229.716 247.771 232.381 253.222 235.461 259.528L236.231 261.068C237.701 264.079 239.311 271.61 241.197 280.318C243.73 292.061 246.587 305.374 249.813 310.741C254.98 319.357 257.282 323.947 257.606 324.601C258.376 325.209 265.537 330.761 268.463 332.817C269.348 333.431 270.318 333.911 271.343 334.242C272.551 334.673 273.429 335.012 273.322 336.906C273.152 339.886 264.282 340.694 263.273 340.779ZM214.524 265.319C215.196 265.287 215.868 265.384 216.503 265.604C216.673 265.673 218.297 266.489 217.974 272.072C217.65 277.654 218.936 289.943 222.594 295.126C225.196 298.806 228.969 306.783 231.734 312.605C232.966 315.2 234.044 317.448 234.66 318.611C236.908 322.769 237.047 335.866 237.047 335.989C237.081 336.693 237.386 337.356 237.899 337.838C238.412 338.321 239.092 338.585 239.796 338.577C241.197 338.577 262.364 339.932 263.265 339.986C266.769 339.693 272.451 338.6 272.552 336.906C272.629 335.566 272.274 335.435 271.081 335.012C269.983 334.655 268.945 334.136 268.001 333.472C264.921 331.3 257.121 325.233 257.044 325.171L256.974 325.117L256.928 325.04C256.928 324.994 254.68 320.42 249.128 311.18C245.848 305.705 242.968 292.323 240.427 280.519C238.633 272.21 236.947 264.349 235.514 261.438L234.744 259.898C231.726 253.676 229.108 248.348 224.989 245.183C220.369 241.665 213.439 238.546 201.966 234.765C190.208 230.915 182.323 227.751 182.246 227.72L174.438 224.07C171.667 228.504 169.227 233.136 167.138 237.93C164.313 244.914 167.185 253.615 168.548 257.026C170.319 261.461 177.826 266.797 190.108 268.045C200.995 269.146 203.405 268.299 207.402 266.897L209.019 266.343C210.789 265.72 212.648 265.382 214.524 265.342V265.319Z" fill="#263238"/>
<path d="M268.247 333.202C265.121 331.015 257.298 324.94 257.298 324.94C257.298 324.94 256.62 323.531 255.049 320.674L254.572 321.167C254.572 321.167 246.025 322.592 244.885 325.156L243.746 327.72L236.292 328.544C236.592 331.985 236.662 335.135 236.662 336.043C236.692 336.848 237.036 337.609 237.62 338.163C238.205 338.717 238.983 339.021 239.788 339.008C241.197 339.008 263.242 340.417 263.242 340.417C263.242 340.417 272.775 339.647 272.937 336.975C273.098 334.303 271.373 335.389 268.247 333.202Z" fill="white"/>
<path d="M263.273 340.779C262.996 340.779 241.174 339.37 239.796 339.37C238.888 339.378 238.012 339.033 237.355 338.406C236.698 337.779 236.311 336.92 236.277 336.013C236.277 335.189 236.215 332.039 235.907 328.559V328.182L243.515 327.335L244.562 324.971C245.709 322.391 253.078 321.013 254.41 320.782L255.18 320.012L255.427 320.474C256.774 322.93 257.475 324.324 257.644 324.678C258.414 325.286 265.575 330.838 268.501 332.894C269.386 333.508 270.356 333.988 271.381 334.319C272.59 334.75 273.468 335.089 273.36 336.983C273.152 339.886 264.282 340.694 263.273 340.779ZM236.708 328.859C236.985 332.224 237.047 335.212 237.047 336.013C237.081 336.716 237.386 337.379 237.899 337.861C238.412 338.344 239.092 338.609 239.796 338.6C241.197 338.6 262.364 339.955 263.265 340.009C266.769 339.716 272.451 338.623 272.552 336.929C272.629 335.589 272.274 335.458 271.081 335.035C269.983 334.678 268.945 334.159 268.001 333.495C264.921 331.323 257.121 325.256 257.044 325.194L256.974 325.14L256.928 325.063C256.928 325.063 256.312 323.777 254.942 321.267L254.734 321.475H254.61C252.3 321.86 246.079 323.292 245.217 325.24L243.985 328.005L236.708 328.859Z" fill="#263238"/>
<path d="M226.505 232.679C226.505 232.679 220.091 233.449 216.342 235.027C212.592 236.606 211.652 238.153 211.652 239.401C211.652 240.648 216.657 262.069 216.657 262.069C216.657 262.069 215.718 265.042 216.342 265.981C216.965 266.92 216.965 267.521 217.589 267.698C218.213 267.875 220.091 285.524 225.25 294.433C230.409 303.341 235.568 313.036 237.132 321.321C238.695 329.606 241.513 334.611 245.732 334.765C249.952 334.919 250.576 327.265 251.515 325.387C252.455 323.508 257.298 324.917 257.298 324.917C257.298 324.917 258.399 323.977 256.836 319.442C255.273 314.907 249.49 305.528 247.95 301.155C246.41 296.781 245.64 275.36 242.791 265.042L241.544 259.097C241.544 259.097 241.544 257.064 240.92 256.287L240.288 255.517C240.288 255.517 235.599 243.197 233.728 238.946C231.857 234.696 230.24 232.994 226.505 232.679Z" fill="white"/>
<path d="M245.863 335.15H245.717C241.467 334.996 238.448 330.361 236.754 321.39C235.214 313.151 230.148 303.68 224.919 294.625C221.239 288.265 219.221 277.516 218.136 271.741C217.82 270.047 217.512 268.445 217.366 268.029C217.161 267.929 216.979 267.788 216.83 267.617C216.68 267.445 216.567 267.245 216.495 267.028C216.366 266.736 216.211 266.455 216.033 266.189C215.379 265.211 216.033 262.762 216.272 262.054C215.656 259.428 211.283 240.64 211.283 239.401C211.283 237.622 212.938 236.028 216.211 234.665C219.968 233.125 226.221 232.355 226.475 232.294H226.552C230.64 232.632 232.234 234.657 234.059 238.777C235.884 242.896 240.265 254.393 240.612 255.309L241.205 256.079C241.859 256.895 241.906 258.728 241.913 259.09L243.153 264.995C244.693 270.747 245.648 279.764 246.456 287.726C247.08 293.886 247.619 299.16 248.297 301.055C249.553 304.047 250.98 306.965 252.57 309.794C254.308 312.869 255.851 316.05 257.19 319.319C258.73 323.87 257.76 325.025 257.544 325.209L257.382 325.348L257.19 325.286C256.012 324.948 252.501 324.262 251.854 325.556C251.573 326.249 251.351 326.966 251.192 327.697C250.422 330.676 249.251 335.15 245.863 335.15ZM226.513 233.064C225.974 233.133 219.999 233.918 216.503 235.374C213.546 236.606 212.053 237.953 212.053 239.393C212.053 240.278 215.04 253.384 217.042 261.977V262.077V262.177C216.68 263.34 216.326 265.219 216.688 265.758C216.878 266.054 217.047 266.363 217.196 266.682C217.427 267.144 217.504 267.267 217.712 267.313C218.105 267.413 218.182 267.698 218.913 271.594C219.991 277.323 221.993 287.98 225.612 294.232C230.871 303.318 235.961 312.882 237.532 321.244C239.103 329.606 241.975 334.234 245.771 334.372C248.666 334.48 249.752 330.276 250.476 327.496C250.646 326.706 250.888 325.933 251.199 325.186C252.139 323.292 256.004 324.139 257.152 324.416C257.321 324.016 257.598 322.73 256.489 319.519C255.167 316.286 253.639 313.14 251.915 310.102C250.297 307.233 248.849 304.271 247.58 301.232C246.872 299.245 246.325 293.909 245.702 287.726C244.893 279.787 243.969 270.786 242.414 265.088L241.151 259.043C241.181 258.155 240.996 257.273 240.612 256.472L239.927 255.586C239.88 255.463 235.214 243.197 233.366 239.031C231.395 234.711 229.863 233.356 226.513 233.064Z" fill="#263238"/>
<path d="M218.829 266.959L218.544 266.243C219.229 265.973 235.384 259.652 241.451 258.72L241.567 259.49C235.584 260.399 218.998 266.897 218.829 266.959Z" fill="#263238"/>
<path d="M218.374 263.671L218.059 262.97C218.174 262.916 229.763 257.773 238.14 255.755L238.317 256.525C230.009 258.504 218.49 263.617 218.374 263.671Z" fill="#263238"/>
<path d="M219.899 277.662L217.52 278.34L217.858 281.574L220.577 281.235L219.899 277.662Z" fill="#263238"/>
<path d="M217.52 282.005L217.104 278.062L220.184 277.177L221.015 281.566L217.52 282.005ZM217.935 278.624L218.197 281.142L220.122 280.904L219.599 278.147L217.935 278.624Z" fill="#263238"/>
<path d="M230.956 305.043L227.722 306.229L229.254 309.294L232.142 307.931L230.956 305.043Z" fill="#263238"/>
<path d="M229.077 309.802L227.16 306.021L231.141 304.55L232.612 308.123L229.077 309.802ZM228.261 306.46L229.424 308.77L231.649 307.723L230.74 305.513L228.261 306.46Z" fill="#263238"/>
<path d="M176.163 161.076C176.163 161.076 188.483 157.011 188.483 152.606C188.483 148.202 183.948 142.127 182.854 140.725C181.761 139.324 178.319 137.753 177.071 138.069C175.824 138.384 169.726 143.382 168.471 146.662C167.215 149.942 171.127 160.422 172.066 161.515" fill="white"/>
<path d="M171.805 161.8C170.881 160.714 166.823 150.027 168.147 146.554C169.418 143.22 175.57 138.084 177.01 137.722C178.45 137.36 181.999 138.993 183.17 140.517C184.51 142.242 188.876 148.217 188.876 152.637C188.876 157.257 176.779 161.277 176.263 161.446L176.017 160.714C179.382 159.606 188.106 155.994 188.106 152.637C188.106 148.341 183.486 142.181 182.562 140.987C181.499 139.624 178.211 138.215 177.172 138.469C176.132 138.723 170.041 143.682 168.84 146.831C167.693 149.834 171.427 160.199 172.367 161.3L171.805 161.8Z" fill="#263238"/>
<path d="M168.755 146.985L168.247 146.408C168.609 146.084 177.164 138.554 182.338 140.171L182.107 140.941C177.333 139.424 168.848 146.908 168.755 146.985Z" fill="#263238"/>
<path d="M172.313 156.241L171.882 155.602C172.321 155.309 182.577 148.479 188.16 150.212L187.928 150.982C182.692 149.326 172.421 156.171 172.313 156.241Z" fill="#263238"/>
<path d="M171.374 150.304L170.95 149.657C171.374 149.38 181.283 143.012 184.81 143.659L184.671 144.429C181.445 143.821 171.474 150.235 171.374 150.304Z" fill="#263238"/>
<path d="M172.205 250.519C169.456 250.519 166.045 245.961 165.868 245.769L166.484 245.307C167.408 246.539 170.242 249.749 172.205 249.749C173.523 249.577 174.815 249.249 176.055 248.772C181.276 246.946 186.744 245.921 192.271 245.73C203.144 245.437 208.01 247.116 208.21 247.185L207.956 247.909C207.91 247.909 202.99 246.215 192.294 246.5C186.857 246.687 181.478 247.691 176.34 249.48C175.013 250.006 173.623 250.355 172.205 250.519Z" fill="#263238"/>
</svg>
